<svg width="45" height="44" viewBox="0 0 45 44" fill="none" xmlns="http://www.w3.org/2000/svg">
<path d="M17.5604 6.95875C10.7168 10.8019 8.46076 19.7795 12.5214 27.0108C16.5823 34.2422 25.4226 36.9894 32.2663 33.1463C39.1101 29.3031 41.3657 20.3248 37.3049 13.0934C33.2439 5.86218 24.4041 3.11563 17.5604 6.95875ZM20.0115 11.3235C24.5739 8.76142 30.467 10.5922 33.1743 15.413C35.8815 20.2339 34.3777 26.2195 29.8153 28.7816C25.2528 31.3436 19.3592 29.5121 16.652 24.6912C13.945 19.8704 15.4492 13.8856 20.0115 11.3235Z" fill="#54C4C3"/>
<path d="M34.9482 14.4169C32.1427 9.44109 26.0354 7.55091 21.3076 10.1952C20.5126 10.6399 19.8093 11.1865 19.1992 11.8085C19.3169 11.7356 19.4365 11.6639 19.5585 11.5956C24.2864 8.95156 30.3929 10.8424 33.1982 15.8183C35.5308 19.9564 34.844 24.9229 31.8281 27.9999C36.2715 25.2483 37.6803 19.2635 34.9482 14.4169ZM21.2509 14.5985C18.0992 16.3615 17.0598 20.4805 18.9296 23.7978C20.7999 27.1152 24.8724 28.3753 28.0244 26.6122C28.6697 26.2512 29.2242 25.7892 29.6855 25.2577C26.5461 26.9494 22.5337 25.684 20.6806 22.3974C19.1934 19.7592 19.5469 16.6155 21.3388 14.5517C21.3097 14.5674 21.2799 14.5823 21.2509 14.5985Z" fill="#54C4C3"/>
<path d="M15.6581 32.3573L11.8205 28L2.07352 37.5515C0.928347 38.6738 0.859065 40.5589 1.91878 41.7621V41.7621C2.97849 42.9654 4.7659 43.0311 5.91108 41.9089L15.6581 32.3573Z" fill="#54C4C3"/>
</svg>
